<svg id="Layer_1" data-name="Layer 1" xmlns="http://www.w3.org/2000/svg" viewBox="0 0 64.01 64.01"><defs><style>.cls-1{fill:#231f20;}.cls-2{fill:#c75c5c;}.cls-3{fill:#fff;}</style></defs><title>Artboard 1</title><path class="cls-1" d="M20.11,37.38a1.22,1.22,0,0,0,1.38.61l5.32-1.47,3.51-1h0l.29.08a5,5,0,0,0,6.2-3.4l.08-.29a4.85,4.85,0,0,0-3.13-5.7l-.28-.09a5,5,0,0,0-6.2,3.4l-.09.29h0L24.5,32.31,20.4,36A1,1,0,0,0,20.11,37.38Z"/><path class="cls-2" d="M20.11,38.41a1.23,1.23,0,0,0,1.38.62l5.32-1.47,3.51-1h0l.29.09a5,5,0,0,0,6.2-3.4l.08-.29a4.87,4.87,0,0,0-3.13-5.71l-.28-.08a5,5,0,0,0-6.2,3.4l-.09.29h0L24.5,33.34,20.4,37A1,1,0,0,0,20.11,38.41Z"/><circle class="cls-3" cx="32" cy="32" r="5"/></svg>