<svg id="Layer_1" data-name="Layer 1" xmlns="http://www.w3.org/2000/svg" viewBox="0 0 64 64"><defs><style>.cls-1{fill:#4f5d73;}.cls-2{fill:#e0e0d1;}.cls-3{fill:#f5cf87;}</style></defs><title>Artboard 1</title><circle class="cls-1" cx="32" cy="32" r="32"/><path class="cls-2" d="M47.7,40.6a1.45,1.45,0,0,1,1-.7,2.29,2.29,0,0,1,1.4.1l2.5,1.2a1.44,1.44,0,0,1,.9,1.1,1.84,1.84,0,0,1-.2,1.6,2.24,2.24,0,0,1-1.2,1,1.74,1.74,0,0,1-1.4-.3L48.4,43a2.1,2.1,0,0,1-.8-1.1A1.9,1.9,0,0,1,47.7,40.6Z"/><path class="cls-2" d="M16.4,40.8a1.86,1.86,0,0,1-.7,2.4l-2.3,1.6a2,2,0,0,1-2-3.4l2.5-1.2A2,2,0,0,1,16.4,40.8Z"/><path class="cls-2" d="M14,31.8a1.77,1.77,0,0,1-1.8,1.7l-2.8.3a1.94,1.94,0,0,1-2-2,1.86,1.86,0,0,1,1.9-2l2.8.2C13.2,30.2,14,30.9,14,31.8Z"/><path class="cls-2" d="M16.3,22.7a1.45,1.45,0,0,1-1,.7,2.29,2.29,0,0,1-1.4-.1l-2.5-1.2a1.44,1.44,0,0,1-.9-1.1,1.84,1.84,0,0,1,.2-1.6,2.24,2.24,0,0,1,1.2-1,1.74,1.74,0,0,1,1.4.3l2.3,1.6a2.1,2.1,0,0,1,.8,1.1A1.19,1.19,0,0,1,16.3,22.7Z"/><path class="cls-2" d="M22.9,16.1a1.86,1.86,0,0,1-2.4-.7l-1.6-2.3a2,2,0,1,1,3.4-2l1.2,2.5A2.07,2.07,0,0,1,22.9,16.1Z"/><path class="cls-2" d="M31.9,13.6a1.77,1.77,0,0,1-1.7-1.8L29.9,9a1.94,1.94,0,0,1,2-2,1.86,1.86,0,0,1,2,1.9l-.2,2.8C33.5,12.8,32.8,13.6,31.9,13.6Z"/><path class="cls-2" d="M41,16a1.45,1.45,0,0,1-.7-1,2.29,2.29,0,0,1,.1-1.4l1.2-2.5a1.44,1.44,0,0,1,1.1-.9,1.84,1.84,0,0,1,1.6.2,2.24,2.24,0,0,1,1,1.2A1.74,1.74,0,0,1,45,13l-1.6,2.3a2.1,2.1,0,0,1-1.1.8A1.84,1.84,0,0,1,41,16Z"/><path class="cls-2" d="M47.6,22.5a1.86,1.86,0,0,1,.7-2.4l2.3-1.6a2,2,0,0,1,2,3.4L50,23.1A1.73,1.73,0,0,1,47.6,22.5Z"/><path class="cls-2" d="M50.1,31.5a1.77,1.77,0,0,1,1.8-1.7l2.8-.3a1.94,1.94,0,0,1,2,2,1.86,1.86,0,0,1-1.9,2L52,33.3A2,2,0,0,1,50.1,31.5Z"/><path class="cls-3" d="M40,49a3,3,0,0,1-3,3H27a3,3,0,0,1-3-3V47a3,3,0,0,1,3-3H37a3,3,0,0,1,3,3Z"/></svg>